<svg version="1.1" id="Layer_1" xmlns="http://www.w3.org/2000/svg" xmlns:xlink="http://www.w3.org/1999/xlink" x="0px" y="0px"
	 width="100%" viewBox="0 0 496 496" enable-background="new 0 0 496 496" xml:space="preserve">
<path fill="#000000" opacity="1.000000" stroke="none" 
	d="
M117.468658,497.000000 
	C111.807823,495.562134 106.427528,495.878113 101.143562,495.497131 
	C91.185905,494.779266 81.189644,494.598297 71.209702,494.187531 
	C64.889877,493.927429 63.824051,492.956787 63.892071,486.838379 
	C64.195854,459.513458 64.426277,432.186554 64.954399,404.865631 
	C65.347008,384.555725 66.004570,364.247864 66.814217,343.949829 
	C68.048187,313.013611 69.401382,282.081146 70.922173,251.157806 
	C72.025375,228.725906 73.459435,206.310059 74.790344,183.889679 
	C75.441010,172.928741 76.392487,161.981598 76.819695,151.013077 
	C77.054115,144.994598 79.573631,141.865906 85.456985,140.181458 
	C97.342537,136.778549 109.420662,136.123322 121.577728,136.772644 
	C136.926453,137.592407 152.045303,139.875153 166.171097,146.499237 
	C170.856308,148.696289 175.514969,150.985596 179.413208,154.434769 
	C181.649750,156.413681 183.812958,156.734940 186.721802,156.134750 
	C209.526306,151.429642 232.619431,150.910782 255.786469,151.772079 
	C258.559509,151.875183 261.549164,152.260925 261.138885,156.050415 
	C260.755219,159.594070 257.707489,159.185638 255.276901,158.982208 
	C234.918808,157.278183 214.690125,158.689926 194.513306,161.391373 
	C192.592484,161.648560 190.715500,162.233185 188.940338,162.637955 
	C188.617645,165.156342 190.016342,166.547592 190.793457,168.140625 
	C194.511887,175.763153 195.769226,183.760117 193.366394,191.903168 
	C188.999695,206.701843 171.365814,214.356308 157.385864,207.817688 
	C145.373184,202.199203 142.381180,186.910248 150.914902,174.335892 
	C154.454117,169.120895 159.203857,165.259186 164.940750,162.635025 
	C167.499039,161.464813 170.073624,160.330200 173.174637,158.940155 
	C170.327240,155.549820 166.716629,153.836060 163.138992,152.437225 
	C139.303772,143.117737 114.871437,140.532761 89.726913,146.250244 
	C85.973938,147.103622 84.099701,148.735123 83.885315,152.856339 
	C83.237236,165.314682 82.091537,177.746338 81.366417,190.201614 
	C79.654495,219.606964 78.013832,249.016815 76.478043,278.431824 
	C76.044006,286.745056 75.729843,295.074219 75.463188,303.389191 
	C74.240730,341.506653 72.579483,379.608002 71.829025,417.745697 
	C71.406013,439.242554 71.649513,460.732391 71.249725,482.220917 
	C71.184341,485.734833 71.730270,487.655029 76.068169,487.742371 
	C115.357376,488.533569 154.598740,490.714905 193.876190,491.988556 
	C255.851730,493.998322 317.823486,493.853638 379.806335,493.763824 
	C393.301422,493.744293 406.790955,493.612640 420.264404,492.808289 
	C428.125580,492.338928 430.647430,489.816956 430.706879,481.966064 
	C431.025970,439.806091 431.137634,397.644836 429.743958,355.499542 
	C428.824890,327.708038 428.022278,299.905365 426.525238,272.142303 
	C424.948853,242.907990 422.660522,213.711151 420.576202,184.505569 
	C419.723816,172.561951 418.542450,160.642105 417.610596,148.703659 
	C417.280457,144.474289 415.860138,142.491318 410.975983,142.113495 
	C390.385895,140.520782 369.798248,139.303268 349.140533,139.130219 
	C344.593933,139.092148 343.187683,140.440781 343.203461,145.094818 
	C343.239563,155.730377 344.172119,166.403717 342.476044,177.014725 
	C340.330566,190.437180 333.473175,197.897995 322.717834,198.319794 
	C308.061157,198.894562 296.745575,191.125366 293.632111,178.349731 
	C289.624512,161.905182 299.456879,143.259033 315.492188,136.806366 
	C320.949127,134.610474 326.670776,133.545563 332.449493,132.821198 
	C335.091888,132.489960 335.783569,131.280136 335.519592,128.832520 
	C332.410126,100.007065 325.182068,72.292122 313.611084,45.679295 
	C300.672119,15.920194 276.334412,6.678307 247.877518,9.730812 
	C204.711990,14.361083 173.910797,37.567566 154.625687,76.220177 
	C150.217865,85.054634 147.515778,94.498619 146.290024,104.329330 
	C146.187119,105.154655 146.143707,106.001793 145.917755,106.794647 
	C145.272263,109.059654 144.157532,110.951828 141.370880,110.229584 
	C138.900299,109.589249 138.721207,107.586617 139.011276,105.430588 
	C142.243073,81.409508 152.281647,60.532383 168.507584,42.679329 
	C188.244476,20.963247 212.513748,6.853325 241.722946,3.221923 
	C262.493805,0.639608 283.139465,2.096140 300.572693,16.217636 
	C311.716644,25.244625 317.770721,37.679462 323.172485,50.484386 
	C333.598053,75.198250 339.321503,101.106613 342.205597,127.675484 
	C342.570892,131.040466 343.899414,131.786987 346.892212,131.834152 
	C370.033508,132.198715 393.106842,133.801315 416.169495,135.667130 
	C421.184052,136.072815 423.712158,138.175140 424.088409,143.228851 
	C425.088379,156.659851 426.234894,170.079910 427.321716,183.504440 
	C428.555786,198.747864 429.915283,213.982513 430.983154,229.237564 
	C431.912720,242.516510 432.577728,255.815247 433.245667,269.110992 
	C435.526672,314.515869 437.108459,359.933533 437.628632,405.406403 
	C437.906891,429.731934 438.059662,454.056854 438.162109,478.382660 
	C438.189026,484.784882 437.247803,491.003174 433.102844,496.660736 
	C327.979095,497.000000 222.958206,497.000000 117.468658,497.000000 
M336.311401,142.575638 
	C335.945923,140.506607 335.060974,139.296967 332.614563,139.662460 
	C327.508881,140.425201 322.431671,141.269958 317.648224,143.294128 
	C304.752869,148.751038 296.476898,165.312302 300.363861,177.801910 
	C303.002808,186.281464 312.731049,192.413666 322.353516,191.663147 
	C329.766754,191.084930 334.641479,185.859894 335.609009,177.247604 
	C336.873657,165.990463 336.934021,154.693756 336.311401,142.575638 
M164.137772,202.734329 
	C179.406769,203.882935 188.558838,195.729645 187.629456,181.712433 
	C187.268799,176.272980 185.032867,171.469925 182.109589,166.960190 
	C181.130203,165.449326 179.905228,164.637955 177.929230,165.149094 
	C168.312515,167.636765 159.739182,171.649582 154.990723,181.060822 
	C150.160095,190.634888 153.462555,199.039337 164.137772,202.734329 
z"/>
</svg>